 http://desibbrg.org/images/66952052392581364616.gif 
http://desibbrg.org/images/97235848952651794578.jpg 
http://desibbrg.org/images/24916462662962237472.png 
http://desibbrg.org/images/70993814096340046597.png 
http://desibbrg.org/images/32027685584779656077.png 
http://desibbrg.org/images/43452378809942686833.png

Media Info - 
Video
Format : AVC
Format/Info : Advanced Video Codec
Format profile : Baseline@L3.0
Format settings, CABAC : No
Format settings, ReFrames : 1 frame
Codec ID : avc1
Codec ID/Info : Advanced Video Coding
Duration : 1h 52mn
Bit rate : 492 Kbps
Maximum bit rate : 2 200 Kbps
Width : 640 pixels
Height : 360 pixels
Display aspect ratio : 16:9
Frame rate mode : Constant
Frame rate : 25.000 fps
Color space : YUV
Chroma subsampling : 4:2:0
Bit depth : 8 bits
Scan type : Progressive
Bits/(Pixel*Frame) : 0.085
Stream size : 394 MiB (83%)

Audio
Format : AAC
Format/Info : Advanced Audio Codec
Format profile : LC
Codec ID : 40
Duration : 1h 52mn
Bit rate mode : Variable
Bit rate : 96.0 Kbps
Maximum bit rate : 103 Kbps
Channel(s) : 2 channels
Channel positions : Front: L R
Sampling rate : 44.1 KHz
Compression mode : Lossy
Stream size : 76.9 MiB (16%)


Ripper : Lottery

Seeding 24x7... Extreme Seeding...


Enjoy!
